HIERARCHY
ROOT root
{
	OFFSET 0.000000 0.000000 0.000000
	CHANNELS 6 Xposition Yposition Zposition Zrotation Yrotation Xrotation
	JOINT lhip
	{
		OFFSET 0.058581 -0.082280 -0.017664
		CHANNELS 3 Zrotation Yrotation Xrotation
		JOINT lknee
		{
			OFFSET 0.043451 -0.386469 0.008037
			CHANNELS 3 Zrotation Yrotation Xrotation
			JOINT lankle
			{
				OFFSET -0.014790 -0.426874 -0.037428
				CHANNELS 3 Zrotation Yrotation Xrotation
				JOINT ltoe
				{
					OFFSET 0.041054 -0.060286 0.122042
					CHANNELS 3 Zrotation Yrotation Xrotation
					End Site
					{
						OFFSET 0.000000 0.000000 0.000000
					}
				}
			}
		}
	}
	JOINT rhip
	{
		OFFSET -0.060310 -0.090513 -0.013543
		CHANNELS 3 Zrotation Yrotation Xrotation
		JOINT rknee
		{
			OFFSET -0.043257 -0.383688 -0.004843
			CHANNELS 3 Zrotation Yrotation Xrotation
			JOINT rankle
			{
				OFFSET 0.019056 -0.420046 -0.034562
				CHANNELS 3 Zrotation Yrotation Xrotation
				JOINT rtoe
				{
					OFFSET -0.034840 -0.062106 0.130323
					CHANNELS 3 Zrotation Yrotation Xrotation
					End Site
					{
						OFFSET 0.000000 0.000000 0.000000
					}
				}
			}
		}
	}
	JOINT lowerback
	{
		OFFSET 0.004439 0.124404 -0.038385
		CHANNELS 3 Zrotation Yrotation Xrotation
		JOINT upperback
		{
			OFFSET 0.004488 0.137956 0.026820
			CHANNELS 3 Zrotation Yrotation Xrotation
			JOINT chest
			{
				OFFSET -0.002265 0.056032 0.002855
				CHANNELS 3 Zrotation Yrotation Xrotation
				JOINT lowerneck
				{
					OFFSET -0.013390 0.211636 -0.033468
					CHANNELS 3 Zrotation Yrotation Xrotation
					JOINT upperneck
					{
						OFFSET 0.010113 0.088937 0.050410
						CHANNELS 3 Zrotation Yrotation Xrotation
						End Site
						{
							OFFSET 0.000000 0.000000 0.000000
						}
					}
				}
				JOINT lclavicle
				{
					OFFSET 0.071702 0.114000 -0.018898
					CHANNELS 3 Zrotation Yrotation Xrotation
					JOINT lshoulder
					{
						OFFSET 0.122921 0.045205 -0.019046
						CHANNELS 3 Zrotation Yrotation Xrotation
						JOINT lelbow
						{
							OFFSET 0.255332 -0.015649 -0.022946
							CHANNELS 3 Zrotation Yrotation Xrotation
							JOINT lwrist
							{
								OFFSET 0.265709 0.012698 -0.007375
								CHANNELS 3 Zrotation Yrotation Xrotation
								End Site
								{
									OFFSET 0.000000 0.000000 0.000000
								}
							}
						}
					}
				}
				JOINT rclavicle
				{
					OFFSET -0.082954 0.112472 -0.023707
					CHANNELS 3 Zrotation Yrotation Xrotation
					JOINT rshoulder
					{
						OFFSET -0.113228 0.046853 -0.008472
						CHANNELS 3 Zrotation Yrotation Xrotation
						JOINT relbow
						{
							OFFSET -0.260127 -0.014369 -0.031269
							CHANNELS 3 Zrotation Yrotation Xrotation
							JOINT rwrist
							{
								OFFSET -0.269108 0.006794 -0.006027
								CHANNELS 3 Zrotation Yrotation Xrotation
								End Site
								{
									OFFSET 0.000000 0.000000 0.000000
								}
							}
						}
					}
				}
			}
		}
	}
}
MOTION
Frames: 8
Frame Time: 0.033333
0.418288 0.165693 0.993160 86.004482 -0.264790 95.929150 6.800771 1.629629 -1.790916 -3.848919 5.520772 6.178210 1.942079 6.203226 -8.841569 0.000000 -0.000000 0.000000 -5.996339 -0.679239 -7.425938 -2.515760 -5.895142 14.923851 5.772698 -2.167093 -11.645921 0.000000 -0.000000 0.000000 -4.760748 3.334069 -9.399187 -0.454803 -1.372934 12.085186 -3.462271 1.886549 -4.727060 5.123663 3.605617 16.193209 4.824980 -1.826684 -10.141412 -15.437383 2.026824 -7.221392 -66.806006 -15.895202 28.179138 151.411867 -69.926552 -117.998093 -40.380526 -3.102287 12.418237 11.003222 4.487979 -2.932938 72.032818 17.991537 23.077570 -148.516463 58.957966 -119.443360 24.451990 3.835321 -2.139098 
0.417406 0.164639 0.993587 85.679813 -0.440128 95.401366 6.785330 1.934290 -1.103294 -4.041207 6.007123 5.854314 1.708285 5.621323 -8.455072 0.000000 -0.000000 0.000000 -6.135029 -0.530889 -7.040766 -2.704957 -6.032709 15.064115 5.916014 -1.766407 -11.833661 0.000000 -0.000000 0.000000 -4.758960 3.148368 -9.562206 -1.151384 -1.439679 13.327226 -4.100115 1.801063 -4.806355 6.197220 3.357441 19.811584 5.486678 -0.843478 -9.752871 -13.708371 2.516812 -7.260882 -67.728054 -15.749665 28.211212 151.013990 -69.551828 -116.357247 -40.464996 -3.522454 11.832167 8.141320 5.135971 -2.256948 73.688267 22.028424 24.659018 -149.362481 57.630973 -119.175000 22.360124 4.823102 -2.594785 
0.416389 0.163045 0.994586 85.245481 -0.652864 94.581368 6.732391 2.139414 -0.010199 -4.256621 6.357649 5.367243 1.457780 5.290714 -8.082768 0.000000 -0.000000 0.000000 -6.235259 -0.342222 -6.411592 -2.949071 -5.955914 15.287079 6.073850 -1.403031 -12.016365 0.000000 -0.000000 0.000000 -4.946887 3.033985 -9.533220 -1.923769 -1.364119 14.915136 -4.755504 1.817914 -4.713426 7.661170 2.611774 23.746739 6.544920 -0.154280 -9.792134 -11.922205 3.016267 -7.462237 -68.654755 -15.795969 28.215652 150.891347 -69.175514 -115.202282 -40.277804 -4.030822 11.438525 5.050763 5.916547 -1.850392 75.236453 25.900651 25.993574 -150.089775 56.144606 -118.817884 20.269908 5.601523 -2.688418 
0.414319 0.161254 0.996142 84.988512 -0.750928 93.553130 6.816092 2.338335 1.014804 -4.376489 6.684588 5.253514 1.188891 4.916566 -7.856671 0.000000 -0.000000 0.000000 -6.095401 -0.168694 -5.667919 -3.256681 -5.832555 15.618871 6.156073 -1.321904 -12.230864 0.000000 -0.000000 0.000000 -5.115936 2.923263 -8.842535 -2.747639 -1.320560 16.130543 -5.418981 1.873739 -4.456099 9.375676 1.421353 27.428680 7.885143 0.122045 -9.839283 -10.194903 3.570726 -7.815027 -69.708405 -15.806638 28.289350 150.659889 -68.838167 -113.933112 -39.786627 -4.806508 11.047669 1.902586 6.603331 -1.794204 76.754241 29.178998 27.321455 -150.327481 54.842065 -118.164852 17.757628 6.734028 -3.054720 
0.411113 0.159426 0.997787 84.812210 -0.730207 92.637850 7.062517 2.529833 1.714368 -4.520401 6.846190 5.331976 1.035324 4.547835 -7.528670 0.000000 -0.000000 0.000000 -5.799946 0.017240 -5.194311 -3.532011 -5.630063 16.106408 6.137306 -1.446379 -12.446566 0.000000 -0.000000 0.000000 -5.299417 2.815859 -7.521641 -3.525152 -1.179123 16.477831 -5.977926 1.834942 -3.877818 11.089895 -0.189625 30.229804 9.298337 0.084034 -9.848245 -8.664635 4.325253 -8.207769 -70.810191 -15.816284 28.355534 150.858808 -68.452696 -113.323883 -39.736323 -5.308294 10.556075 -1.282889 6.973686 -1.859696 78.226889 31.693616 28.362208 -150.789301 53.682219 -117.979226 16.272263 7.456761 -4.157619 
0.407503 0.157758 0.999299 84.763298 -0.694220 92.122237 7.274461 2.580528 1.899044 -4.602194 7.075892 5.478580 0.915057 4.289310 -7.294378 0.000000 -0.000000 0.000000 -5.516072 0.149571 -5.161418 -3.724429 -5.451097 16.635361 6.201223 -1.620290 -12.627446 0.000000 -0.000000 0.000000 -5.668357 2.668435 -6.011759 -4.387658 -1.046156 15.999523 -6.466057 1.827149 -3.126960 12.830837 -1.981186 32.022057 11.265562 -0.305619 -9.944982 -7.220736 5.150773 -8.383567 -71.712788 -15.768785 28.393043 151.477296 -67.979247 -113.154503 -39.866833 -5.758977 10.174482 -3.986486 7.158743 -1.605251 79.721298 33.387495 29.184116 -151.310970 52.855424 -117.874593 15.774217 8.208150 -5.463100 
0.404025 0.155806 1.000100 84.974348 -0.514534 91.723076 7.729251 2.571417 1.900054 -4.729442 7.385010 5.609968 0.848685 3.936008 -7.067592 0.000000 -0.000000 0.000000 -5.007565 0.170338 -5.143922 -3.992912 -5.361561 17.088241 6.157987 -1.849907 -12.847508 0.000000 -0.000000 0.000000 -6.230255 2.178982 -5.094269 -5.174467 -1.267630 16.038010 -6.738346 2.037850 -1.981975 14.287459 -3.211771 32.301073 13.185473 -0.089698 -9.901059 -6.233986 5.660916 -8.757354 -72.292337 -15.661012 28.178967 152.057862 -66.931202 -113.379155 -40.404099 -5.455969 10.354806 -6.685377 7.655573 -1.434655 81.081327 35.152874 29.784250 -151.071738 52.355471 -117.238000 16.558479 8.730728 -6.432397 
0.401050 0.153180 1.001886 84.917022 -0.488328 91.494399 7.952324 2.570761 2.097101 -4.817839 7.767042 5.296722 0.657945 3.522926 -6.668999 0.000000 -0.000000 0.000000 -4.695550 0.350262 -5.147111 -4.159254 -5.310938 17.275993 5.993860 -1.908389 -12.855502 0.000000 -0.000000 0.000000 -7.067881 2.084312 -3.745555 -6.037215 -1.292557 16.591293 -7.226147 1.515036 -2.577156 16.665586 -3.608209 32.301904 14.610831 0.312249 -9.760649 -5.114333 7.091758 -8.915443 -72.559746 -15.577102 28.169144 153.287511 -66.006825 -114.045110 -41.378554 -6.026672 10.164714 -8.279290 7.430086 -1.249301 83.347917 36.215160 31.732543 -150.479704 52.445822 -116.415599 18.787369 11.551842 -7.433500 
